<svg width="24" height="24" viewBox="0 0 24 24" fill="none" xmlns="http://www.w3.org/2000/svg">
<path d="M9.05688 10.6459L8.20019 11.4999H9.4099H16.9999C17.1325 11.4999 17.2597 11.5526 17.3534 11.6464C17.4472 11.7402 17.4999 11.8673 17.4999 11.9999C17.4999 12.1326 17.4472 12.2597 17.3534 12.3535C17.2597 12.4473 17.1325 12.4999 16.9999 12.4999H9.4099H8.20019L9.05688 13.354L12.3569 16.644L12.3578 16.6449C12.4047 16.6914 12.4419 16.7467 12.4672 16.8077C12.4926 16.8686 12.5057 16.9339 12.5057 16.9999C12.5057 17.0659 12.4926 17.1313 12.4672 17.1922C12.4419 17.2532 12.4047 17.3085 12.3578 17.3549L12.3578 17.3549L12.3549 17.3578C12.3084 17.4047 12.2531 17.4419 12.1922 17.4673C12.1313 17.4927 12.0659 17.5057 11.9999 17.5057C11.9339 17.5057 11.8685 17.4927 11.8076 17.4673C11.7467 17.4419 11.6914 17.4047 11.6449 17.3578L11.6434 17.3564L6.64797 12.3609C6.60393 12.3141 6.56933 12.2592 6.54608 12.1992L6.54617 12.1992L6.54239 12.1899C6.49238 12.0682 6.49238 11.9317 6.54239 11.8099L6.54248 11.81L6.54608 11.8007C6.56933 11.7407 6.60393 11.6858 6.64797 11.639L11.6434 6.64349L11.2917 6.29177L11.6435 6.64349C11.738 6.54896 11.8662 6.49585 11.9999 6.49585C12.1336 6.49585 12.2618 6.54896 12.3563 6.64349C12.4509 6.73803 12.504 6.86625 12.504 6.99994C12.504 7.13356 12.4509 7.26171 12.3565 7.35623C12.3564 7.35628 12.3564 7.35633 12.3563 7.35639L9.05688 10.6459Z" fill="#333333" stroke="#333333"/>
</svg>
