<svg width="24" height="24" viewBox="0 0 24 24" fill="none" xmlns="http://www.w3.org/2000/svg">
<path d="M17.4538 11.8007L17.4537 11.8007L17.4575 11.8099C17.5075 11.9317 17.5075 12.0682 17.4575 12.1899L17.4574 12.1899L17.4538 12.1992C17.4306 12.2592 17.396 12.3141 17.3519 12.3609L12.3564 17.3564L12.355 17.3578C12.3085 17.4047 12.2532 17.4419 12.1923 17.4673C12.1314 17.4927 12.066 17.5057 12 17.5057C11.934 17.5057 11.8686 17.4927 11.8077 17.4673C11.7468 17.4419 11.6915 17.4047 11.645 17.3578L11.6421 17.3549C11.5952 17.3085 11.558 17.2532 11.5327 17.1922C11.5073 17.1313 11.4942 17.0659 11.4942 16.9999C11.4942 16.9339 11.5073 16.8686 11.5327 16.8077C11.558 16.7467 11.5952 16.6914 11.6421 16.6449L11.643 16.644L14.943 13.354L15.7997 12.4999H14.59H7C6.86739 12.4999 6.74022 12.4473 6.64645 12.3535C6.55268 12.2597 6.5 12.1325 6.5 11.9999C6.5 11.8673 6.55268 11.7402 6.64645 11.6464C6.74022 11.5526 6.86739 11.4999 7 11.4999H14.59H15.7997L14.943 10.6459L11.6436 7.35639C11.6435 7.35633 11.6434 7.35628 11.6434 7.35623C11.549 7.26171 11.4959 7.13356 11.4959 6.99994C11.4959 6.93374 11.5089 6.86819 11.5343 6.80703C11.5596 6.74588 11.5967 6.6903 11.6436 6.64349C11.7381 6.54896 11.8663 6.49585 12 6.49585C12.0662 6.49585 12.1317 6.50889 12.1929 6.53422C12.2541 6.55955 12.3096 6.59669 12.3564 6.64349L12.7083 6.29163L12.3564 6.64349L17.3519 11.639C17.396 11.6858 17.4306 11.7407 17.4538 11.8007Z" fill="#333333" stroke="#333333"/>
</svg>
