<svg width="24" height="24" viewBox="0 0 24 24" fill="none" xmlns="http://www.w3.org/2000/svg">
<path d="M9.24289 17.4999L9.24289 17.4999H9.24H5C4.86739 17.4999 4.74021 17.4473 4.64645 17.3535C4.55268 17.2597 4.5 17.1325 4.5 16.9999L4.50001 12.7599L4.49999 12.757C4.49961 12.6912 4.51222 12.626 4.53711 12.5651C4.56186 12.5045 4.59826 12.4494 4.64426 12.4028C4.6445 12.4025 4.64475 12.4023 4.64499 12.402L11.5833 5.47375L11.5842 5.47287L14.4042 2.64287L14.405 2.64204C14.4515 2.59517 14.5068 2.55798 14.5677 2.53259C14.6286 2.50721 14.694 2.49414 14.76 2.49414C14.826 2.49414 14.8914 2.50721 14.9523 2.53259C15.0131 2.55794 15.0684 2.59508 15.1148 2.64185C15.1149 2.64192 15.1149 2.64198 15.115 2.64204L19.3544 6.93141L19.3544 6.93143L19.3579 6.93494C19.4048 6.98142 19.442 7.03672 19.4673 7.09765C19.4927 7.15858 19.5058 7.22393 19.5058 7.28994C19.5058 7.35595 19.4927 7.4213 19.4673 7.48223C19.4421 7.54276 19.4052 7.59773 19.3588 7.64403C19.3585 7.64433 19.3582 7.64464 19.3579 7.64494L16.5202 10.4226L16.5202 10.4226L16.5162 10.4266L9.59789 17.3549C9.59767 17.3552 9.59744 17.3554 9.59722 17.3556C9.55064 17.4016 9.49547 17.4381 9.43484 17.4628C9.37393 17.4877 9.30869 17.5003 9.24289 17.4999ZM15.1136 4.05639L14.76 3.70283L14.4064 4.05639L12.9864 5.47639L12.6329 5.82994L12.9864 6.18349L15.8164 9.01349L16.17 9.36705L16.5236 9.01349L17.9436 7.59349L18.2971 7.23994L17.9436 6.88639L15.1136 4.05639ZM5.64645 12.8164L5.5 12.9628V13.1699V15.9999V16.4999H6H8.83H9.03711L9.18355 16.3535L15.1136 10.4235L15.4671 10.0699L15.1136 9.71639L12.2836 6.88639L11.93 6.53283L11.5764 6.88639L5.64645 12.8164ZM3 20.4999H21C21.1326 20.4999 21.2598 20.5526 21.3536 20.6464C21.4473 20.7402 21.5 20.8673 21.5 20.9999C21.5 21.1325 21.4473 21.2597 21.3536 21.3535C21.2598 21.4473 21.1326 21.4999 21 21.4999H3C2.86739 21.4999 2.74021 21.4473 2.64645 21.3535C2.55268 21.2597 2.5 21.1325 2.5 20.9999C2.5 20.8673 2.55268 20.7402 2.64645 20.6464C2.74021 20.5526 2.86739 20.4999 3 20.4999Z" fill="#333333" stroke="#333333"/>
</svg>
